<?xml version="1.0" encoding="utf-8"?>
<!-- Generator: Adobe Illustrator 21.1.0, SVG Export Plug-In . SVG Version: 6.00 Build 0)  -->
<svg version="1.1" id="Layer_1" xmlns="http://www.w3.org/2000/svg" xmlns:xlink="http://www.w3.org/1999/xlink" x="0px" y="0px"
	 viewBox="0 0 558.3 288.8" style="enable-background:new 0 0 558.3 288.8;" xml:space="preserve">
<style type="text/css">
	.st0{fill-rule:evenodd;clip-rule:evenodd;}
</style>
<path class="st0" d="M202.3,85.5c0.6,0.2,0.9,0.3,1.3,0.4c7.8,3.6,15.2,7.9,22,13.3c3.5,2.8,5.1,6.1,5,10.8
	c-0.8,29.2-1.4,58.3-2,87.5c-0.1,3.1,0,6.2,0,9.2c0.1,3.9,2.6,5.7,6.4,4.5c0.8-0.3,1.6-0.6,2.4-1.1c9.7-6.6,17.5-14.7,19.6-26.6
	c2.5-14.1,4.5-28.3,6.7-42.5c0.8-5.1,1.5-10.3,2.3-15.4c1.1-7.2,5.8-11.3,13.1-11.7c0.9,0,1.9,0,2.8,0.1c3,0.4,3.8,1.9,3.6,4.9
	c-0.4,6.6-0.9,13.2-1,19.8c-0.1,17.9-2.5,35.5-3.6,53.3c-0.5,8.2-0.2,16.5-0.3,24.8c0,0.5-0.1,1.1,0.2,1.4c1.1,1.2,2.2,2.7,3.6,3.3
	c0.7,0.3,2.6-0.8,3.1-1.7c2.2-3.7,4.4-7.5,5.9-11.5c4.2-11.5,8.2-23,11.8-34.6c1.2-3.9,0.9-8.3,1.5-12.4c2.7-18,5.5-36,8.4-53.9
	c1.4-8.8,3.2-17.5,4.8-26.3c0.1-0.3,0-0.6,0-1.3c-5.1,1.1-10,2.2-15,3.3c-2-6.6-2-7.9,3.4-11.1c3.5-2,7.4-3.5,11.3-4.7
	c3.8-1.2,6.2-3.5,7.5-7.1c5.1-14.3,9.3-29,17.1-42.2c2.7-4.6,6.2-9,9.9-12.8c3.7-3.8,8.5-5.9,14.2-4.7c3.2,0.7,4.9,2.2,4.5,5.6
	c-0.8,7.4-1.5,14.8-3,22c-2.1,9.9-5,19.7-7.5,29.5c-0.3,1-0.4,2-0.7,3.5c2.8-0.6,5.4-1.1,8-1.6c7.7-1.7,15.4-3.4,23-5.1
	c0.5-0.1,1.1-0.1,1.6-0.2c2.6-0.5,4.6,0.3,5.4,3c-4.3,5-10.5,6.2-16.5,7.8c-7.5,1.9-15.2,3.4-22.7,5.6c-6.2,1.8-5.2,1.2-5.6,6.8
	c-1.3,19.1-3,38.2-3.5,57.4c-0.8,27.3-1,54.6-1,81.8c0,9.8,1.3,19.6,2.2,29.4c0.1,1.4,1.2,2.7,1.9,4.1c1.2-1.1,3-2,3.6-3.4
	c2.8-6.9,5.8-13.8,7.7-21c4.4-17,8.4-34.1,12.2-51.2c1-4.3,0.6-9,1.1-13.4c2.7-21.7,10.3-41.7,22-60.1c5.9-9.3,14.4-15.2,25.6-16.3
	c7.6-0.7,14.5,1.3,20.8,5.5c4.9,3.3,7,8.1,7.2,13.7c0.6,14.9-1.3,29.6-4.5,44.1c-0.6,2.7-1.4,5.4-2.6,7.8c-1.3,2.4-3,4.7-5,6.4
	c-3,2.5-6.5,1-6.8-2.9c-0.2-3.3-0.1-6.7,0.8-9.8c2.9-10.3,6.2-20.5,9.5-30.7c1.4-4.4,1.6-8.8,0.6-13.3c-1-4.4-4.1-5.5-7.3-2.2
	c-2.5,2.6-4.6,5.6-6.3,8.7c-6.6,12.3-11.2,25.4-14,39c-3.2,16-3.7,32.1-0.2,48.1c1.1,5.2,3,10.1,6.3,14.4c4,5.2,7.9,6.6,14.3,4.9
	c7.3-2,12.5-6.7,17.2-12.3c0.4-0.5,0.6-1.4,0.6-2.2c-1.2-34.2,3.8-67.8,10.2-101.2c2.9-15.2,5.9-30.5,11.5-45
	c3.5-9.2,7.3-18.4,12.9-26.5c2.6-3.7,5.7-7.2,9.1-10.1c4.8-4.2,10.4-4.7,16.2-1.6c8.8,4.7,11.3,12.3,6.9,21.4
	C518.7,52,510.7,61.5,503,71.2c-0.8,1-1.4,2.3-1.5,3.5c-1.9,21.6-3.8,43.2-5.4,64.8c-0.6,8.5-0.5,17-0.6,25.5c0,1.3,0.4,2.5,0.7,3.8
	c0.3,0.1,0.6,0.2,0.9,0.2c0.8-1.3,1.7-2.5,2.3-3.8c5.7-12.3,12.6-24,20.8-34.8c4-5.3,8.5-10.2,14.1-13.8c5.3-3.4,10.2-3.2,14.9,1
	c6.5,5.8,9.2,13.3,9.1,21.8c-0.1,10.5-0.2,21-0.6,31.5c-0.5,13.2-1.5,26.5-2.1,39.7c-0.2,4-1.5,7-4.6,9.6
	c-4.5,3.7-8.8,7.6-13.4,11.7c-4.1-5.6-8.5-10.8-12-16.5c-2.6-4.3-2.2-9.6-1.3-14.3c2.7-14.4,6-28.7,8.9-43
	c1.8-9.2,3.5-18.4,5.1-27.6c0.3-1.6,0.1-3.3-0.2-4.9c-0.5-2.3-2.2-2.9-4-1.3c-1.5,1.4-2.9,3.1-4.2,4.8c-9.6,13.7-18,28.2-24.7,43.5
	c-6.7,15.4-9.6,31.6-8.8,48.4c0.2,3.9-0.6,7.3-2.4,10.7c-3.4,6.1-7.8,11.4-13.5,15.7c-0.9,0.7-2,1.3-3,1.9c-3.5,1.8-4.8,1.5-7.4-1.3
	c-5.6-6.3-8.2-14.1-10.1-22.1c-0.6-2.4-1-4.9-1.5-7.6c-1.4,1.5-2.6,2.9-3.9,4.2c-8.4,8.6-18.3,11.7-30.3,9.5
	c-10.8-2-19.4-7.6-27.4-14.6c-7.7-6.8-14.4-14.2-16.8-24.8c-0.8,3.3-1.6,6.6-2.4,9.9c-3.5,14.2-7.1,28.4-12.9,42
	c-2,4.6-4.4,9.1-7.2,13.2c-3.8,5.6-7,6.5-13.4,4.7c-13.3-3.7-22.9-12.2-30.5-23.3c-6.8-9.9-9.5-20.8-9.2-32.7c0.1-3.2,0-6.4-0.5-9.7
	c-1.2,3.3-2.1,6.7-3.5,9.8c-2.6,6-5.4,11.9-8.3,17.7c-1,1.9-2.5,3.7-4,5.3c-6.3,6.8-14.2,6.7-20.5-0.1c-4.4-4.8-6.2-10.8-6.8-17.1
	c-0.6-5.6-0.6-11.3-0.8-17c-0.1-1.1-0.1-2.3-0.8-3.5c-0.5,1-1,2-1.6,3c-3.4,5.9-7.3,11.4-12.5,15.9c-4.7,4-10.1,6.4-16.1,7.4
	c-4.1,0.7-8-0.4-11.7-2.2c-6.5-3.1-11.8-7.7-16.1-13.2c-1.7-2.2-2.1-5.5-2.8-8.4c-0.7-2.7-1.1-5.4-1.8-8.6c-0.3,0.9-0.6,1.4-0.7,1.9
	c-4,17.2-8.3,34.3-14.7,50.8c-1.7,4.5-3.8,8.8-6.2,13c-3.2,5.6-13.5,9.9-19.8,8.5c-1.7-0.4-3.4-1.3-4.9-2.3
	c-12.7-9.2-23.4-20.4-32.2-33.3c-1-1.5-1.5-3.2-2.4-5.1c-0.4,0.8-0.7,1.5-1.1,2.2c-6.5,12.9-12.8,25.8-19.5,38.6
	c-4.1,7.7-9.6,14.4-16.3,20.1c-11.5,9.7-24.7,11.3-38.4,6.6c-7.5-2.6-13.3-8.3-18.5-14.3c-10.3-12-15.8-26.2-18.8-41.5
	c-5.2-26.3-3-52.4,3.3-78.3c6.5-26.6,17-51.5,34.1-73.1c5.3-6.8,11.9-12.6,17.8-18.9c4.2-4.5,9.5-5.4,15.2-4.3
	c14.3,2.6,27.3,8.6,39.7,16c2.8,1.7,3.6,4.7,3.1,7.7c-0.8,4.2-1.6,8.6-3.3,12.5c-6.8,15.4-16.9,28.3-29.5,39.4c-8,7-17,9.2-27.2,6.4
	c-2-0.5-2.9,0.4-3.3,2.1c-0.8,3.5-1.6,6.9-1.9,10.4c-1.9,18-1.3,36.1,0.6,54.1c1.5,13.7,3.8,27.3,8.3,40.4
	c2.3,6.7,5.1,13.2,9.7,18.8c0.4,0.4,0.7,0.8,1.1,1.2c2.6,2.8,4.2,2.8,5.9-0.7c5.5-11.7,11.2-23.3,16.2-35.2
	c6.2-14.8,11.8-29.9,17.7-44.8c1.6-3.9,2.1-8,2.4-12.2c3.1-42.8,14.3-83.2,35.1-120.9c2.6-4.7,5.8-9.2,8.9-13.7
	c3-4.4,7.4-5.9,12.6-5.3c4.8,0.6,8,4.2,8.8,10c1.1,7.8-0.5,15.2-2.6,22.6c-3.1,10.8-7.3,21-13.5,30.5c-2.1,3.3-2.7,7.9-3.2,12
	c-2.4,18.6-2.5,37.3-2,56c0.5,20.5,1.5,41,2.5,61.4c0.3,6.4,1.3,12.7,2.3,19c0.2,1.6,1.7,3,2.6,4.4c1.4-1,3.5-1.6,4.2-3
	c3.1-6.2,6.6-12.4,8.7-19.1c6.1-19.5,11.7-39.2,17.4-58.9c0.3-1,0.3-2,0.2-3c-0.8-17.3-0.5-34.6,2-51.7c1.2-8.2,3.3-16.3,5-24.5
	C201.7,87.2,202,86.4,202.3,85.5z M92.5,87.3c-0.4-4.6-1.7-7-5.8-8.3c-3.5-1.1-7.2-1.6-10.8-2c-3.3-0.4-5.7,1.2-6.8,4.6
	c-2.4,7.1-5.1,14.1-7.2,21.2c-2.7,9-5,18.2-7.3,27.4c-0.7,2.6,0.3,3.4,2.9,2.4c1.9-0.7,3.7-1.7,5.3-3c11.1-8.8,20.1-19.5,26.4-32.3
	C90.6,94.1,91.4,90.6,92.5,87.3z M158.5,87.2c5.2-2.6,16.6-41.2,14.6-48.7c-0.9,0.6-1.9,1-2.4,1.7c-1.5,2.1-3.2,4.1-4.3,6.5
	c-5.3,11.9-7.7,24.4-8.3,37.4C158,84.9,158.3,85.9,158.5,87.2z M503,60.5c0.2,0.1,0.3,0.1,0.5,0.2c4-5.1,8.1-10,11.8-15.3
	c2-2.9,3.6-6.4,4.4-9.8c0.6-2.6,0-5.6-0.6-8.3c-0.5-2.2-2.1-2.6-4.1-1.5c-3.1,1.7-5.5,4-6.3,7.6C506.7,42.4,504.9,51.5,503,60.5z
	 M355.7,59.8c0.2,0,0.4,0,0.6,0c0.2-0.3,0.4-0.7,0.5-1c2.4-8,5-15.9,7-24c1.7-7,2.7-14.2,3.9-21.3c0.1-0.8-0.7-1.7-1-2.6
	c-0.6,0.7-1.5,1.3-1.7,2.1c-2.4,8.1-5,16.2-7,24.5c-1.4,5.9-2,11.9-2.8,17.9C354.8,56.7,355.4,58.3,355.7,59.8z"/>
</svg>
